<svg xmlns="http://www.w3.org/2000/svg" viewBox="0 0 24 24" width="96" height="96">
  <circle cx="12" cy="12" r="12" fill="#1DB954"/>
  <path fill="#131313" d="M17.5 16.2c-.2.3-.6.4-.9.2-2.6-1.6-5.9-1.9-9.8-1.1-.4.1-.7-.2-.8-.5-.1-.4.2-.7.5-.8 4.2-.9 7.9-.6 10.8 1.2.4.2.5.6.4.9zm1.3-3.1c-.3.4-.8.6-1.2.3-3-1.8-7.5-2.4-11-1.3-.5.1-1-.1-1.1-.6-.1-.5.1-1 .6-1.1 3.9-1.2 10.4-1 14.7 1.5.5.3.7.9.4 1.3zm.1-3.2C14.9 7.9 8.1 7.7 4.4 9c-.6.2-1.2-.2-1.4-.7-.2-.6.2-1.2.7-1.4 4.2-1.2 11.1-1 15.6 1.5.5.3.7 1 .4 1.5-.3.4-1 .6-1.5.3z"/>
</svg>
